<svg xmlns="http://www.w3.org/2000/svg" xmlns:xlink="http://www.w3.org/1999/xlink" width="351" height="180" viewBox="0 0 351 180">
  <defs>
    <filter id="Subtraction_2" x="0" y="0" width="351" height="180" filterUnits="userSpaceOnUse">
      <feOffset dx="3" dy="3" input="SourceAlpha"/>
      <feGaussianBlur stdDeviation="3" result="blur"/>
      <feFlood flood-opacity="0.161"/>
      <feComposite operator="in" in2="blur"/>
      <feComposite in="SourceGraphic"/>
    </filter>
  </defs>
  <g transform="matrix(1, 0, 0, 1, 0, 0)" filter="url(#Subtraction_2)">
    <path id="Subtraction_2-2" data-name="Subtraction 2" d="M-2068-1206h-138a11.921,11.921,0,0,1-8.485-3.515A11.921,11.921,0,0,1-2218-1218v-82.393c.087,0,.18.006.279.006,5.083,0,9.218-5.589,9.218-12.46s-4.135-12.459-9.218-12.459c-.092,0-.186,0-.279.006V-1527a11.921,11.921,0,0,1,3.515-8.485A11.921,11.921,0,0,1-2206-1539h138a11.922,11.922,0,0,1,8.486,3.515A11.921,11.921,0,0,1-2056-1527v201.7a8.3,8.3,0,0,0-6.33,3.768,14.942,14.942,0,0,0-2.608,8.685,14.943,14.943,0,0,0,2.608,8.686,8.3,8.3,0,0,0,6.33,3.768V-1218a11.921,11.921,0,0,1-3.515,8.485A11.922,11.922,0,0,1-2068-1206Z" transform="translate(1545 -2050) rotate(-90)" fill="#f4f4f4"/>
  </g>
</svg>
